<svg width="285" height="117" viewBox="0 0 285 117" fill="none" xmlns="http://www.w3.org/2000/svg">
<path d="M67.8594 94.4688C67.8594 96.6562 67.9375 98.5312 68.0938 100.094C68.25 101.604 68.5365 102.958 68.9531 104.156C70.151 104.469 71.401 104.677 72.7031 104.781C74.0573 104.833 75.4896 104.859 77 104.859H84.0312V115.484C79.8125 114.911 75.776 114.521 71.9219 114.312C68.1198 114.104 64.4219 114 60.8281 114C56.6094 114 52.4948 114.13 48.4844 114.391C44.474 114.651 40.3594 115.016 36.1406 115.484V104.859H43.0938C44.6042 104.859 46.0365 104.833 47.3906 104.781C48.7448 104.729 49.9948 104.521 51.1406 104.156C51.974 101.865 52.3906 98.7135 52.3906 94.7031V83.9219H3.40625C1.32292 82.3073 0.28125 80.0417 0.28125 77.125C0.489583 76.3958 0.802083 75.7188 1.21875 75.0938C1.63542 74.4167 2.10417 73.7135 2.625 72.9844C10.9062 61.0573 18.0156 50.875 23.9531 42.4375C29.8906 34 34.8646 26.9688 38.875 21.3438C42.9375 15.7188 46.1406 11.3698 48.4844 8.29688C50.8281 5.17188 52.5729 2.98438 53.7188 1.73438H60.5938C62.1562 1.73438 63.4062 1.83854 64.3438 2.04688C65.3333 2.20312 66.0625 2.51562 66.5312 2.98438C67.0521 3.40104 67.3906 4 67.5469 4.78125C67.7552 5.5625 67.8594 6.55208 67.8594 7.75V74H89.8125V78.2188C89.8125 79.5729 89.6823 80.6406 89.4219 81.4219C89.2135 82.2031 88.849 82.776 88.3281 83.1406C87.8594 83.5052 87.2083 83.7396 86.375 83.8438C85.5938 83.8958 84.6562 83.9219 83.5625 83.9219H67.8594V94.4688ZM52.3906 74V20.7188L16.6094 71.5L15.2031 74H52.3906ZM167.312 58.5312C167.312 49.7812 166.766 42.3073 165.672 36.1094C164.63 29.9115 163.042 24.8594 160.906 20.9531C158.771 16.9948 156.115 14.1042 152.938 12.2812C149.812 10.4583 146.141 9.54688 141.922 9.54688C137.755 9.54688 134.083 10.4844 130.906 12.3594C127.781 14.1823 125.151 17.0729 123.016 21.0312C120.88 24.9375 119.266 29.9896 118.172 36.1875C117.078 42.3854 116.531 49.8333 116.531 58.5312C116.531 67.0729 117.052 74.4167 118.094 80.5625C119.188 86.7083 120.802 91.7604 122.938 95.7188C125.073 99.625 127.703 102.516 130.828 104.391C134.005 106.266 137.703 107.203 141.922 107.203C146.089 107.203 149.76 106.292 152.938 104.469C156.115 102.594 158.771 99.7031 160.906 95.7969C163.042 91.8385 164.63 86.7865 165.672 80.6406C166.766 74.4948 167.312 67.125 167.312 58.5312ZM141.922 116.891C135.203 116.891 129.188 115.589 123.875 112.984C118.615 110.328 114.161 106.526 110.516 101.578C106.87 96.5781 104.083 90.4583 102.156 83.2188C100.229 75.9792 99.2656 67.75 99.2656 58.5312C99.2656 49.2083 100.203 40.9271 102.078 33.6875C104.005 26.3958 106.792 20.276 110.438 15.3281C114.083 10.3281 118.536 6.55208 123.797 4C129.109 1.39583 135.151 0.09375 141.922 0.09375C148.693 0.09375 154.734 1.39583 160.047 4C165.359 6.55208 169.839 10.3281 173.484 15.3281C177.13 20.276 179.891 26.3958 181.766 33.6875C183.693 40.9271 184.656 49.2083 184.656 58.5312C184.656 67.75 183.667 75.9792 181.688 83.2188C179.76 90.4583 176.948 96.5781 173.25 101.578C169.604 106.578 165.125 110.38 159.812 112.984C154.552 115.589 148.589 116.891 141.922 116.891ZM262.234 94.4688C262.234 96.6562 262.312 98.5312 262.469 100.094C262.625 101.604 262.911 102.958 263.328 104.156C264.526 104.469 265.776 104.677 267.078 104.781C268.432 104.833 269.865 104.859 271.375 104.859H278.406V115.484C274.188 114.911 270.151 114.521 266.297 114.312C262.495 114.104 258.797 114 255.203 114C250.984 114 246.87 114.13 242.859 114.391C238.849 114.651 234.734 115.016 230.516 115.484V104.859H237.469C238.979 104.859 240.411 104.833 241.766 104.781C243.12 104.729 244.37 104.521 245.516 104.156C246.349 101.865 246.766 98.7135 246.766 94.7031V83.9219H197.781C195.698 82.3073 194.656 80.0417 194.656 77.125C194.865 76.3958 195.177 75.7188 195.594 75.0938C196.01 74.4167 196.479 73.7135 197 72.9844C205.281 61.0573 212.391 50.875 218.328 42.4375C224.266 34 229.24 26.9688 233.25 21.3438C237.312 15.7188 240.516 11.3698 242.859 8.29688C245.203 5.17188 246.948 2.98438 248.094 1.73438H254.969C256.531 1.73438 257.781 1.83854 258.719 2.04688C259.708 2.20312 260.438 2.51562 260.906 2.98438C261.427 3.40104 261.766 4 261.922 4.78125C262.13 5.5625 262.234 6.55208 262.234 7.75V74H284.188V78.2188C284.188 79.5729 284.057 80.6406 283.797 81.4219C283.589 82.2031 283.224 82.776 282.703 83.1406C282.234 83.5052 281.583 83.7396 280.75 83.8438C279.969 83.8958 279.031 83.9219 277.938 83.9219H262.234V94.4688ZM246.766 74V20.7188L210.984 71.5L209.578 74H246.766Z" fill="black"/>
</svg>
