<svg width="85" height="27" viewBox="0 0 85 27" fill="none" xmlns="http://www.w3.org/2000/svg">
<path d="M5.96094 26C5.01172 26 4.08008 26.0117 3.16602 26.0352C2.26367 26.0703 1.33789 26.1406 0.388672 26.2461V23.7852H1.95312C2.30469 23.7852 2.62695 23.7793 2.91992 23.7676C3.22461 23.7559 3.50586 23.709 3.76367 23.627C3.95117 23.1113 4.04492 22.4023 4.04492 21.5V5.24023C4.04492 4.7832 4.02148 4.38477 3.97461 4.04492C3.92773 3.70508 3.85742 3.40039 3.76367 3.13086C3.50586 3.03711 3.22461 2.98438 2.91992 2.97266C2.62695 2.94922 2.30469 2.9375 1.95312 2.9375H0.371094V1.00391C1.17969 0.910156 2.0293 0.845703 2.91992 0.810547C3.81055 0.763672 4.80664 0.740234 5.9082 0.740234C7.04492 0.740234 8.09375 0.751953 9.05469 0.775391C10.0273 0.798828 10.8711 0.875 11.5859 1.00391V2.9375H9.95117C9.61133 2.9375 9.28906 2.94922 8.98438 2.97266C8.69141 2.98438 8.41016 3.03711 8.14062 3.13086C8.05859 3.40039 7.99414 3.70508 7.94727 4.04492C7.91211 4.38477 7.89453 4.7832 7.89453 5.24023V23.7852H14.5918C15.1895 23.7852 15.7344 23.7676 16.2266 23.7324C16.7188 23.6855 17.1582 23.5566 17.5449 23.3457C17.9434 23.123 18.2891 22.7715 18.582 22.291C18.8867 21.8105 19.1504 21.1309 19.373 20.252L20.8848 20.4629L20.2344 26C19.2031 26.0703 18.1953 26.1289 17.2109 26.1758C16.2266 26.2227 15.2598 26.2461 14.3105 26.2461C12.5645 26.2461 10.9824 26.2051 9.56445 26.123C8.1582 26.041 6.95703 26 5.96094 26ZM51.8926 22.502C51.8926 22.1152 51.875 21.5703 51.8398 20.8672C51.8047 20.1523 51.7578 19.3496 51.6992 18.459C51.6523 17.5684 51.5879 16.6191 51.5059 15.6113C51.4355 14.5918 51.3652 13.584 51.2949 12.5879C51.1191 10.2441 50.9258 7.71875 50.7148 5.01172C49.5312 8.33984 48.4297 11.416 47.4102 14.2402C46.9766 15.4473 46.5371 16.6602 46.0918 17.8789C45.6582 19.0977 45.248 20.2402 44.8613 21.3066C44.4746 22.3613 44.123 23.3047 43.8066 24.1367C43.502 24.957 43.2676 25.5781 43.1035 26H39.7988C39.4824 25.1562 39.1367 24.2129 38.7617 23.1699C38.3984 22.127 38.0176 21.0371 37.6191 19.9004C37.2324 18.7637 36.834 17.6152 36.4238 16.4551C36.0254 15.2832 35.6445 14.1523 35.2812 13.0625C34.4141 10.5078 33.5293 7.88281 32.627 5.1875C32.416 8.31641 32.2344 11.1113 32.082 13.5723C32.0117 14.627 31.9414 15.6582 31.8711 16.666C31.8125 17.6738 31.7539 18.582 31.6953 19.3906C31.6484 20.1875 31.6074 20.8379 31.5723 21.3418C31.5488 21.834 31.5371 22.0918 31.5371 22.1152C31.5371 22.4668 31.5605 22.7539 31.6074 22.9766C31.666 23.1875 31.7598 23.3574 31.8887 23.4863C32.0293 23.6035 32.2168 23.6855 32.4512 23.7324C32.6855 23.7676 32.9844 23.7852 33.3477 23.7852H34.7715L34.5605 26.2461C33.5879 26.1289 32.6797 26.0586 31.8359 26.0352C30.9922 26.0117 30.166 26 29.3574 26C28.373 26 27.4355 26.0117 26.5449 26.0352C25.666 26.0586 24.7461 26.1289 23.7852 26.2461L24.1719 23.7852H25.9297C26.2695 23.7852 26.5918 23.7793 26.8965 23.7676C27.2012 23.7559 27.4941 23.709 27.7754 23.627C27.9277 23.3574 28.0742 23.0527 28.2148 22.7129C28.3672 22.3613 28.4727 21.957 28.5312 21.5C28.6133 20.8789 28.7012 20.1113 28.7949 19.1973C28.8887 18.2832 28.9824 17.3047 29.0762 16.2617C29.1699 15.2188 29.2578 14.1523 29.3398 13.0625C29.4219 11.9727 29.498 10.9473 29.5684 9.98633C29.6504 9.01367 29.7148 8.14648 29.7617 7.38477C29.8203 6.62305 29.8613 6.04297 29.8848 5.64453C29.9199 5.1875 29.9375 4.80664 29.9375 4.50195C29.9375 4.19727 29.9199 3.95117 29.8848 3.76367C29.8613 3.56445 29.8203 3.38281 29.7617 3.21875C29.5156 3.125 29.2402 3.05469 28.9355 3.00781C28.6309 2.96094 28.2734 2.9375 27.8633 2.9375H26.0352V1.00391C26.375 0.957031 26.7148 0.916016 27.0547 0.880859C27.4062 0.845703 27.7754 0.816406 28.1621 0.792969C28.5488 0.769531 28.959 0.757812 29.3926 0.757812C29.8379 0.746094 30.3184 0.740234 30.834 0.740234C31.6777 0.740234 32.416 0.769531 33.0488 0.828125C33.6934 0.875 34.2383 0.933594 34.6836 1.00391C34.9648 1.66016 35.2754 2.46289 35.6152 3.41211C35.9668 4.34961 36.3359 5.36914 36.7227 6.4707C37.1094 7.57227 37.502 8.7207 37.9004 9.91602C38.2988 11.0996 38.6855 12.2656 39.0605 13.4141C39.4473 14.5508 39.8047 15.6406 40.1328 16.6836C40.4727 17.7148 40.7715 18.623 41.0293 19.4082C41.2988 20.1934 41.5156 20.8262 41.6797 21.3066C41.8438 21.7754 41.9375 22.0273 41.9609 22.0625C42.9102 19.1797 43.7715 16.5957 44.5449 14.3105C45.3301 12.0254 46.0273 10.0156 46.6367 8.28125C47.2578 6.54687 47.7852 5.08203 48.2188 3.88672C48.6641 2.67969 49.0273 1.71875 49.3086 1.00391C49.543 0.96875 49.8301 0.939453 50.1699 0.916016C50.5215 0.880859 50.8789 0.851562 51.2422 0.828125C51.6055 0.792969 51.957 0.769531 52.2969 0.757812C52.6484 0.746094 52.9473 0.740234 53.1934 0.740234C54.0488 0.740234 54.8164 0.769531 55.4961 0.828125C56.1875 0.875 56.8438 0.927734 57.4648 0.986328C57.4883 0.986328 57.5117 0.992187 57.5352 1.00391C57.5586 1.00391 57.582 1.00391 57.6055 1.00391L57.7812 2.9375H56.2695C55.8945 2.9375 55.5312 2.9668 55.1797 3.02539C54.8398 3.07227 54.5879 3.16016 54.4238 3.28906C54.377 3.51172 54.3535 3.78125 54.3535 4.09766C54.3535 4.29687 54.3594 4.51367 54.3711 4.74805C54.3945 4.9707 54.418 5.2168 54.4414 5.48633L55.6719 21.5C55.707 21.957 55.7715 22.3496 55.8652 22.6777C55.959 23.0059 56.0469 23.3047 56.1289 23.5742C56.4805 23.6562 56.8438 23.7148 57.2188 23.75C57.5938 23.7734 58.0098 23.7852 58.4668 23.7852H59.3984L59.7852 26.2461C58.8008 26.1289 57.8457 26.0586 56.9199 26.0352C56.0059 26.0117 55.0449 26 54.0371 26C53.2285 26 52.3965 26.0117 51.541 26.0352C50.6855 26.0586 49.7832 26.1289 48.834 26.2461L48.623 23.7852H50.0469C50.4336 23.7852 50.7441 23.7676 50.9785 23.7324C51.2246 23.6973 51.4121 23.6328 51.541 23.5391C51.6816 23.4336 51.7754 23.2988 51.8223 23.1348C51.8691 22.9707 51.8926 22.7598 51.8926 22.502ZM84.1133 24.5586C82.9766 25.2266 81.6992 25.7422 80.2812 26.1055C78.875 26.4688 77.2695 26.6504 75.4648 26.6504C73.6953 26.6504 72.0605 26.3926 70.5605 25.877C69.0723 25.3496 67.7832 24.5645 66.6934 23.5215C65.6035 22.4668 64.748 21.1484 64.127 19.5664C63.5176 17.9727 63.2129 16.1035 63.2129 13.959C63.2129 11.791 63.4941 9.86328 64.0566 8.17578C64.6191 6.48828 65.4395 5.07031 66.5176 3.92188C67.5957 2.76172 68.9199 1.88281 70.4902 1.28516C72.0723 0.675781 73.877 0.371094 75.9043 0.371094C76.7949 0.371094 77.6445 0.429687 78.4531 0.546875C79.2617 0.664063 80 0.816406 80.668 1.00391C81.3477 1.17969 81.9453 1.37305 82.4609 1.58398C82.9883 1.79492 83.4043 1.99414 83.709 2.18164L83.2871 7.08594H81.125C80.832 6.30078 80.5332 5.62109 80.2285 5.04688C79.9238 4.46094 79.5723 3.98047 79.1738 3.60547C78.7754 3.23047 78.3066 2.95508 77.7676 2.7793C77.2285 2.5918 76.5781 2.49805 75.8164 2.49805C74.3398 2.49805 73.0742 2.77344 72.0195 3.32422C70.9648 3.875 70.0977 4.63086 69.418 5.5918C68.75 6.54102 68.252 7.67188 67.9238 8.98438C67.6074 10.2852 67.4492 11.6914 67.4492 13.2031C67.4492 15.1016 67.6426 16.748 68.0293 18.1426C68.4277 19.5254 68.9844 20.6738 69.6992 21.5879C70.4258 22.502 71.2988 23.1816 72.3184 23.627C73.3496 24.0605 74.498 24.2773 75.7637 24.2773C76.9707 24.2773 78.2363 24.0957 79.5605 23.7324C80.8848 23.3691 82.3145 22.8301 83.8496 22.1152L84.1133 24.5586Z" fill="black"/>
</svg>
